<svg width="322" height="493" viewBox="0 0 322 493" fill="none" xmlns="http://www.w3.org/2000/svg">
<g id="Mapa" clip-path="url(#clip0_468_225)">
<rect width="322" height="493" fill="#F2F4F7"/>
<g id="mapa">
<g id="Rectangle 27">
<mask id="path-1-inside-1_468_225" fill="white">
<path d="M8 9.00001C8 8.44772 8.44772 8 9 8H324.5C325.052 8 325.5 8.44772 325.5 9V160C325.5 160.552 325.052 161 324.5 161H283C282.448 161 282 161.448 282 162V204C282 204.552 281.552 205 281 205H257C256.448 205 256 205.448 256 206V456C256 456.552 255.552 457 255 457H9C8.44771 457 8 456.552 8 456V9.00001Z"/>
</mask>
<path d="M8 9.00001C8 8.44772 8.44772 8 9 8H324.5C325.052 8 325.5 8.44772 325.5 9V160C325.5 160.552 325.052 161 324.5 161H283C282.448 161 282 161.448 282 162V204C282 204.552 281.552 205 281 205H257C256.448 205 256 205.448 256 206V456C256 456.552 255.552 457 255 457H9C8.44771 457 8 456.552 8 456V9.00001Z" fill="#F9FAFB" stroke="#D0D5DD" stroke-width="2" mask="url(#path-1-inside-1_468_225)"/>
</g>
<g id="Group 5">
<path id="Rectangle 29" d="M227 392L229 390L255 392V397L256 398V405L257 406V413L258 414V421L259 422V427H227V392Z" fill="#E4E7EC"/>
<rect id="Rectangle 30" x="229" y="390" width="26" height="7" fill="white"/>
<rect id="Rectangle 30_2" x="230" y="398" width="26" height="7" fill="white"/>
<rect id="Rectangle 30_3" x="231" y="406" width="26" height="7" fill="white"/>
<rect id="Rectangle 30_4" x="232" y="414" width="26" height="7" fill="white"/>
<rect id="Rectangle 30_5" x="233" y="422" width="26" height="7" fill="white"/>
</g>
<g id="Union">
<mask id="path-8-inside-2_468_225" fill="white">
<path fill-rule="evenodd" clip-rule="evenodd" d="M48 148H8V206H49V185H94V148H49H48Z"/>
</mask>
<path fill-rule="evenodd" clip-rule="evenodd" d="M48 148H8V206H49V185H94V148H49H48Z" fill="#E1E4E8"/>
<path d="M8 148V147H7V148H8ZM8 206H7V207H8V206ZM49 206V207H50V206H49ZM49 185V184H48V185H49ZM94 185V186H95V185H94ZM94 148H95V147H94V148ZM8 149H48V147H8V149ZM9 206V148H7V206H9ZM49 205H8V207H49V205ZM48 185V206H50V185H48ZM94 184H49V186H94V184ZM93 148V185H95V148H93ZM49 149H94V147H49V149ZM48 149H49V147H48V149Z" fill="#B4C4D9" mask="url(#path-8-inside-2_468_225)"/>
</g>
<g id="Frame 10">
<path id="Rectangle 21" d="M8 8L143 4L147 8V149H8L4 145L8 8Z" fill="#E4E7EC"/>
<rect id="Rectangle 21_2" x="4" y="4" width="139" height="141" fill="white"/>
</g>
<g id="Frame 10_2">
<path id="Rectangle 21_3" d="M147 8L282 4L286 8V126H147L143 122L147 8Z" fill="#E4E7EC"/>
<g id="Rectangle 21_4">
<mask id="path-13-outside-3_468_225" maskUnits="userSpaceOnUse" x="142" y="4" width="140" height="118" fill="black">
<rect fill="white" x="142" y="4" width="140" height="118"/>
<path d="M143 4H282V122H143V4Z"/>
</mask>
<path d="M143 4H282V122H143V4Z" fill="white"/>
<path d="M144 122V4H142V122H144Z" fill="#F2F4F7" mask="url(#path-13-outside-3_468_225)"/>
</g>
</g>
<g id="Frame 10_3">
<path id="Rectangle 21_5" d="M81 210L137 201L141 205V236H73L69 232L81 210Z" fill="#E4E7EC"/>
<g id="Rectangle 21_6">
<mask id="path-16-outside-4_468_225" maskUnits="userSpaceOnUse" x="69" y="200" width="68" height="36" fill="black">
<rect fill="white" x="69" y="200" width="68" height="36"/>
<path d="M69 236H137V201H69V236Z"/>
</mask>
<path d="M69 236H137V201H69V236Z" fill="white"/>
<path d="M137 202H69V200H137V202Z" fill="#F2F4F7" mask="url(#path-16-outside-4_468_225)"/>
</g>
</g>
<g id="Group 3">
<path id="Union_2" d="M8 148L4 202L8 206H49V185H94V148L90 144L8 148Z" fill="#E4E7EC"/>
<path id="Union_3" d="M4 144V202H45V181H90V144H4Z" fill="white"/>
<line id="Line 2" x1="4" y1="143.5" x2="90" y2="143.5" stroke="#F2F4F7"/>
</g>
<g id="Frame 10_4">
<path id="Rectangle 21_7" d="M16 210L65 201L69 205V236H8L4 232L16 210Z" fill="#E2E2E2"/>
<g id="Rectangle 21_8">
<mask id="path-22-outside-5_468_225" maskUnits="userSpaceOnUse" x="4" y="200" width="66" height="36" fill="black">
<rect fill="white" x="4" y="200" width="66" height="36"/>
<path d="M4 236H69V201H4L4 236Z"/>
</mask>
<path d="M4 236H69V201H4L4 236Z" fill="white"/>
<path d="M69 201V200H70V201H69ZM68 236V201H70V236H68ZM69 202H4V200H69V202Z" fill="#F2F4F7" mask="url(#path-22-outside-5_468_225)"/>
</g>
</g>
<g id="Frame 10_5">
<path id="Rectangle 21_9" d="M166 205L164 203L141 205L139 237L141 239H166V205Z" fill="#E4E7EC"/>
<path id="Rectangle 21_10" d="M164 203H139V237H164V203Z" fill="white"/>
</g>
<path id="Rectangle 21_11" d="M203.5 431.5H255.5V456C255.5 456.276 255.276 456.5 255 456.5H203.5V431.5Z" fill="#E1E4E8" stroke="#B4C4D9"/>
<g id="Frame 10_6">
<g id="Rectangle 21_12">
<mask id="path-27-inside-6_468_225" fill="white">
<path d="M8 239.207H87L162 236L166 239.207V337L85 335L4 333L4 332.198L8 287.306V239.207Z"/>
</mask>
<path d="M8 239.207H87L162 236L166 239.207V337L85 335L4 333L4 332.198L8 287.306V239.207Z" fill="#E4E7EC" stroke="#E4E7EC" stroke-width="2" mask="url(#path-27-inside-6_468_225)"/>
</g>
<g id="Rectangle 21_13">
<mask id="path-28-inside-7_468_225" fill="white">
<path d="M4 236H162V334H4V236Z"/>
</mask>
<path d="M4 236H162V334H4V236Z" fill="white"/>
<path d="M4 237H162V235H4V237ZM162 333H4V335H162V333Z" fill="#F2F4F7" mask="url(#path-28-inside-7_468_225)"/>
</g>
</g>
<g id="Frame 10_7">
<g id="Rectangle 21_14">
<mask id="path-30-inside-8_468_225" fill="white">
<path d="M8 337H87L162 333L166 337V457H8.41421C8.14899 457 7.89464 456.895 7.70711 456.707L4 453L8 397V337Z"/>
</mask>
<path d="M8 337H87L162 333L166 337V457H8.41421C8.14899 457 7.89464 456.895 7.70711 456.707L4 453L8 397V337Z" fill="#E4E7EC" stroke="#E4E7EC" stroke-width="2" mask="url(#path-30-inside-8_468_225)"/>
</g>
<g id="Rectangle 21_15">
<mask id="path-31-inside-9_468_225" fill="white">
<path d="M4 333H162V453H4V333Z"/>
</mask>
<path d="M4 333H162V453H4V333Z" fill="white"/>
<path d="M4 334H162V332H4V334Z" fill="#F2F4F7" mask="url(#path-31-inside-9_468_225)"/>
</g>
</g>
<g id="Frame 10_8">
<path id="Rectangle 21_16" d="M255 431L206 427L202 431V457H255L259 453L255 431Z" fill="#E4E7EC"/>
<g id="Rectangle 21_17">
<mask id="path-34-outside-10_468_225" maskUnits="userSpaceOnUse" x="206" y="426" width="53" height="27" fill="black">
<rect fill="white" x="206" y="426" width="53" height="27"/>
<path d="M206 427H259V453H206V427Z"/>
</mask>
<path d="M206 427H259V453H206V427Z" fill="white"/>
<path d="M206 428H259V426H206V428Z" fill="#EDEDED" mask="url(#path-34-outside-10_468_225)"/>
</g>
</g>
<path id="Aula 8" d="M66.1374 289H64.7397L67.8803 280.273H69.4016L72.5423 289H71.1445L68.6772 281.858H68.609L66.1374 289ZM66.3718 285.582H70.9059V286.69H66.3718V285.582ZM77.8466 286.286V282.455H79.125V289H77.8722V287.866H77.804C77.6534 288.216 77.4119 288.507 77.0795 288.74C76.75 288.97 76.3395 289.085 75.848 289.085C75.4276 289.085 75.0554 288.993 74.7315 288.808C74.4105 288.621 74.1577 288.344 73.973 287.977C73.7912 287.611 73.7003 287.158 73.7003 286.618V282.455H74.9744V286.464C74.9744 286.911 75.098 287.266 75.3452 287.53C75.5923 287.794 75.9134 287.926 76.3082 287.926C76.5469 287.926 76.7841 287.866 77.0199 287.747C77.2585 287.628 77.456 287.447 77.6122 287.206C77.7713 286.964 77.8494 286.658 77.8466 286.286ZM82.1112 280.273V289H80.837V280.273H82.1112ZM85.7301 289.145C85.3153 289.145 84.9403 289.068 84.6051 288.915C84.2699 288.759 84.0043 288.533 83.8082 288.237C83.6151 287.942 83.5185 287.58 83.5185 287.151C83.5185 286.781 83.5895 286.477 83.7315 286.239C83.8736 286 84.0653 285.811 84.3068 285.672C84.5483 285.533 84.8182 285.428 85.1165 285.357C85.4148 285.286 85.7188 285.232 86.0284 285.195C86.4205 285.149 86.7386 285.112 86.983 285.084C87.2273 285.053 87.4048 285.003 87.5156 284.935C87.6264 284.866 87.6818 284.756 87.6818 284.602V284.572C87.6818 284.2 87.5767 283.912 87.3665 283.707C87.1591 283.503 86.8494 283.401 86.4375 283.401C86.0085 283.401 85.6705 283.496 85.4233 283.686C85.179 283.874 85.0099 284.082 84.9162 284.312L83.7188 284.04C83.8608 283.642 84.0682 283.321 84.3409 283.077C84.6165 282.83 84.9332 282.651 85.2912 282.54C85.6491 282.426 86.0256 282.369 86.4205 282.369C86.6818 282.369 86.9588 282.401 87.2514 282.463C87.5469 282.523 87.8224 282.634 88.0781 282.795C88.3366 282.957 88.5483 283.189 88.7131 283.49C88.8778 283.788 88.9602 284.176 88.9602 284.653V289H87.7159V288.105H87.6648C87.5824 288.27 87.4588 288.432 87.294 288.591C87.1293 288.75 86.9176 288.882 86.6591 288.987C86.4006 289.092 86.0909 289.145 85.7301 289.145ZM86.0071 288.122C86.3594 288.122 86.6605 288.053 86.9105 287.913C87.1634 287.774 87.3551 287.592 87.4858 287.368C87.6193 287.141 87.6861 286.898 87.6861 286.639V285.795C87.6406 285.841 87.5526 285.884 87.4219 285.923C87.294 285.96 87.1477 285.993 86.983 286.021C86.8182 286.047 86.6577 286.071 86.5014 286.094C86.3452 286.114 86.2145 286.131 86.1094 286.145C85.8622 286.176 85.6364 286.229 85.4318 286.303C85.2301 286.376 85.0682 286.483 84.946 286.622C84.8267 286.759 84.767 286.94 84.767 287.168C84.767 287.483 84.8835 287.722 85.1165 287.884C85.3494 288.043 85.6463 288.122 86.0071 288.122ZM96.7649 289.119C96.1541 289.119 95.6143 289.014 95.1456 288.804C94.6797 288.594 94.3146 288.304 94.0504 287.935C93.7862 287.565 93.6555 287.145 93.6584 286.673C93.6555 286.304 93.7308 285.964 93.8842 285.655C94.0405 285.342 94.2521 285.082 94.5192 284.875C94.7862 284.665 95.0845 284.531 95.4141 284.474V284.423C94.9794 284.318 94.6314 284.085 94.37 283.724C94.1087 283.364 93.9794 282.949 93.9822 282.48C93.9794 282.034 94.0973 281.636 94.3359 281.287C94.5774 280.935 94.9084 280.658 95.3288 280.456C95.7493 280.254 96.228 280.153 96.7649 280.153C97.2962 280.153 97.7706 280.256 98.1882 280.46C98.6087 280.662 98.9396 280.939 99.1811 281.291C99.4226 281.641 99.5447 282.037 99.5476 282.48C99.5447 282.949 99.4112 283.364 99.147 283.724C98.8828 284.085 98.5391 284.318 98.1158 284.423V284.474C98.4425 284.531 98.7365 284.665 98.9979 284.875C99.2621 285.082 99.4723 285.342 99.6286 285.655C99.7876 285.964 99.8686 286.304 99.8714 286.673C99.8686 287.145 99.7351 287.565 99.4709 287.935C99.2067 288.304 98.8402 288.594 98.3714 288.804C97.9055 289.014 97.37 289.119 96.7649 289.119ZM96.7649 288.041C97.1257 288.041 97.4382 287.982 97.7024 287.862C97.9666 287.74 98.1712 287.571 98.3161 287.355C98.4609 287.136 98.5348 286.881 98.5376 286.588C98.5348 286.284 98.4553 286.016 98.299 285.783C98.1456 285.55 97.9368 285.366 97.6726 285.233C97.4084 285.099 97.1058 285.033 96.7649 285.033C96.4212 285.033 96.1158 285.099 95.8487 285.233C95.5817 285.366 95.3714 285.55 95.218 285.783C95.0646 286.016 94.9893 286.284 94.9922 286.588C94.9893 286.881 95.0589 287.136 95.201 287.355C95.3459 287.571 95.5518 287.74 95.8189 287.862C96.0859 287.982 96.4013 288.041 96.7649 288.041ZM96.7649 283.98C97.0547 283.98 97.3118 283.922 97.5362 283.805C97.7607 283.689 97.9368 283.527 98.0646 283.32C98.1953 283.112 98.2621 282.869 98.2649 282.591C98.2621 282.318 98.1967 282.08 98.0689 281.875C97.9439 281.67 97.7692 281.513 97.5447 281.402C97.3203 281.288 97.0604 281.232 96.7649 281.232C96.4638 281.232 96.1996 281.288 95.9723 281.402C95.7479 281.513 95.5732 281.67 95.4482 281.875C95.3232 282.08 95.2621 282.318 95.2649 282.591C95.2621 282.869 95.3246 283.112 95.4524 283.32C95.5803 283.527 95.7564 283.689 95.9808 283.805C96.2081 283.922 96.4695 283.98 96.7649 283.98Z" fill="#98A2B3"/>
<path id="Aula 9" d="M57.114 67H55.7163L58.8569 58.2727H60.3782L63.5188 67H62.1211L59.6538 59.858H59.5856L57.114 67ZM57.3484 63.5824H61.8825V64.6903H57.3484V63.5824ZM68.8232 64.2855V60.4545H70.1016V67H68.8487V65.8665H68.7805C68.63 66.2159 68.3885 66.5071 68.0561 66.7401C67.7266 66.9702 67.3161 67.0852 66.8246 67.0852C66.4041 67.0852 66.032 66.9929 65.7081 66.8082C65.3871 66.6207 65.1342 66.3438 64.9496 65.9773C64.7678 65.6108 64.6768 65.1577 64.6768 64.6179V60.4545H65.951V64.4645C65.951 64.9105 66.0746 65.2656 66.3217 65.5298C66.5689 65.794 66.8899 65.9261 67.2848 65.9261C67.5234 65.9261 67.7607 65.8665 67.9964 65.7472C68.2351 65.6278 68.4325 65.4474 68.5888 65.206C68.7479 64.9645 68.826 64.6577 68.8232 64.2855ZM73.0877 58.2727V67H71.8136V58.2727H73.0877ZM76.7067 67.1449C76.2919 67.1449 75.9169 67.0682 75.5817 66.9148C75.2464 66.7585 74.9808 66.5327 74.7848 66.2372C74.5916 65.9418 74.495 65.5795 74.495 65.1506C74.495 64.7812 74.5661 64.4773 74.7081 64.2386C74.8501 64 75.0419 63.8111 75.2834 63.6719C75.5249 63.5327 75.7947 63.4276 76.093 63.3565C76.3913 63.2855 76.6953 63.2315 77.005 63.1946C77.397 63.1491 77.7152 63.1122 77.9595 63.0838C78.2038 63.0526 78.3814 63.0028 78.4922 62.9347C78.603 62.8665 78.6584 62.7557 78.6584 62.6023V62.5724C78.6584 62.2003 78.5533 61.9119 78.343 61.7074C78.1357 61.5028 77.826 61.4006 77.4141 61.4006C76.9851 61.4006 76.647 61.4957 76.3999 61.6861C76.1555 61.8736 75.9865 62.0824 75.8928 62.3125L74.6953 62.0398C74.8374 61.642 75.0447 61.321 75.3175 61.0767C75.593 60.8295 75.9098 60.6506 76.2678 60.5398C76.6257 60.4261 77.0021 60.3693 77.397 60.3693C77.6584 60.3693 77.9354 60.4006 78.228 60.4631C78.5234 60.5227 78.799 60.6335 79.0547 60.7955C79.3132 60.9574 79.5249 61.1889 79.6896 61.4901C79.8544 61.7884 79.9368 62.1761 79.9368 62.6534V67H78.6925V66.1051H78.6413C78.5589 66.2699 78.4354 66.4318 78.2706 66.5909C78.1058 66.75 77.8942 66.8821 77.6357 66.9872C77.3771 67.0923 77.0675 67.1449 76.7067 67.1449ZM76.9837 66.1222C77.3359 66.1222 77.6371 66.0526 77.8871 65.9134C78.1399 65.7741 78.3317 65.5923 78.4624 65.3679C78.5959 65.1406 78.6626 64.8977 78.6626 64.6392V63.7955C78.6172 63.8409 78.5291 63.8835 78.3984 63.9233C78.2706 63.9602 78.1243 63.9929 77.9595 64.0213C77.7947 64.0469 77.6342 64.071 77.478 64.0938C77.3217 64.1136 77.1911 64.1307 77.0859 64.1449C76.8388 64.1761 76.6129 64.2287 76.4084 64.3026C76.2067 64.3764 76.0447 64.483 75.9226 64.6222C75.8033 64.7585 75.7436 64.9403 75.7436 65.1676C75.7436 65.483 75.8601 65.7216 76.093 65.8835C76.326 66.0426 76.6229 66.1222 76.9837 66.1222ZM87.6946 58.1534C88.0838 58.1562 88.4673 58.2273 88.8452 58.3665C89.223 58.5057 89.5639 58.733 89.8679 59.0483C90.1747 59.3636 90.419 59.7898 90.6009 60.3267C90.7855 60.8608 90.8793 61.5256 90.8821 62.321C90.8821 63.0852 90.8054 63.7656 90.652 64.3622C90.4986 64.956 90.2784 65.4574 89.9915 65.8665C89.7074 66.2756 89.3622 66.5866 88.956 66.7997C88.5497 67.0128 88.0923 67.1193 87.5838 67.1193C87.0639 67.1193 86.6023 67.017 86.1989 66.8125C85.7955 66.608 85.4673 66.3253 85.2145 65.9645C84.9616 65.6009 84.804 65.1832 84.7415 64.7116H86.0412C86.1264 65.0866 86.2997 65.3906 86.5611 65.6236C86.8253 65.8537 87.1662 65.9688 87.5838 65.9688C88.223 65.9688 88.7216 65.6903 89.0795 65.1335C89.4375 64.5739 89.6179 63.7926 89.6207 62.7898H89.5526C89.4048 63.0341 89.2202 63.2443 88.9986 63.4205C88.7798 63.5966 88.5341 63.733 88.2614 63.8295C87.9886 63.9261 87.6974 63.9744 87.3878 63.9744C86.8849 63.9744 86.4276 63.8509 86.0156 63.6037C85.6037 63.3565 85.2756 63.017 85.0312 62.5852C84.7869 62.1534 84.6648 61.6605 84.6648 61.1065C84.6648 60.5554 84.7898 60.0554 85.0398 59.6065C85.2926 59.1577 85.6449 58.8026 86.0966 58.5412C86.5511 58.277 87.0838 58.1477 87.6946 58.1534ZM87.6989 59.2614C87.3665 59.2614 87.0668 59.3437 86.7997 59.5085C86.5355 59.6705 86.3267 59.8906 86.1733 60.169C86.0199 60.4446 85.9432 60.7514 85.9432 61.0895C85.9432 61.4276 86.017 61.7344 86.1648 62.0099C86.3153 62.2827 86.5199 62.5 86.7784 62.6619C87.0398 62.821 87.3381 62.9006 87.6733 62.9006C87.9233 62.9006 88.1563 62.8523 88.3722 62.7557C88.5881 62.6591 88.777 62.5256 88.9389 62.3551C89.1009 62.1818 89.2273 61.9858 89.3182 61.767C89.4091 61.5483 89.4545 61.3182 89.4545 61.0767C89.4545 60.7557 89.3778 60.4574 89.2244 60.1818C89.0739 59.9062 88.8665 59.6847 88.6023 59.517C88.3381 59.3466 88.0369 59.2614 87.6989 59.2614Z" fill="#98A2B3"/>
<path id="Aula 10" d="M192.719 67H191.322L194.462 58.2727H195.984L199.124 67H197.727L195.259 59.858H195.191L192.719 67ZM192.954 63.5824H197.488V64.6903H192.954V63.5824ZM204.429 64.2855V60.4545H205.707V67H204.454V65.8665H204.386C204.235 66.2159 203.994 66.5071 203.662 66.7401C203.332 66.9702 202.922 67.0852 202.43 67.0852C202.01 67.0852 201.637 66.9929 201.314 66.8082C200.993 66.6207 200.74 66.3438 200.555 65.9773C200.373 65.6108 200.282 65.1577 200.282 64.6179V60.4545H201.556V64.4645C201.556 64.9105 201.68 65.2656 201.927 65.5298C202.174 65.794 202.495 65.9261 202.89 65.9261C203.129 65.9261 203.366 65.8665 203.602 65.7472C203.841 65.6278 204.038 65.4474 204.194 65.206C204.353 64.9645 204.431 64.6577 204.429 64.2855ZM208.693 58.2727V67H207.419V58.2727H208.693ZM212.312 67.1449C211.897 67.1449 211.522 67.0682 211.187 66.9148C210.852 66.7585 210.586 66.5327 210.39 66.2372C210.197 65.9418 210.1 65.5795 210.1 65.1506C210.1 64.7812 210.172 64.4773 210.314 64.2386C210.456 64 210.647 63.8111 210.889 63.6719C211.13 63.5327 211.4 63.4276 211.699 63.3565C211.997 63.2855 212.301 63.2315 212.61 63.1946C213.002 63.1491 213.321 63.1122 213.565 63.0838C213.809 63.0526 213.987 63.0028 214.098 62.9347C214.208 62.8665 214.264 62.7557 214.264 62.6023V62.5724C214.264 62.2003 214.159 61.9119 213.949 61.7074C213.741 61.5028 213.431 61.4006 213.02 61.4006C212.591 61.4006 212.252 61.4957 212.005 61.6861C211.761 61.8736 211.592 62.0824 211.498 62.3125L210.301 62.0398C210.443 61.642 210.65 61.321 210.923 61.0767C211.199 60.8295 211.515 60.6506 211.873 60.5398C212.231 60.4261 212.608 60.3693 213.002 60.3693C213.264 60.3693 213.541 60.4006 213.833 60.4631C214.129 60.5227 214.404 60.6335 214.66 60.7955C214.919 60.9574 215.13 61.1889 215.295 61.4901C215.46 61.7884 215.542 62.1761 215.542 62.6534V67H214.298V66.1051H214.247C214.164 66.2699 214.041 66.4318 213.876 66.5909C213.711 66.75 213.5 66.8821 213.241 66.9872C212.983 67.0923 212.673 67.1449 212.312 67.1449ZM212.589 66.1222C212.941 66.1222 213.243 66.0526 213.493 65.9134C213.745 65.7741 213.937 65.5923 214.068 65.3679C214.201 65.1406 214.268 64.8977 214.268 64.6392V63.7955C214.223 63.8409 214.135 63.8835 214.004 63.9233C213.876 63.9602 213.73 63.9929 213.565 64.0213C213.4 64.0469 213.24 64.071 213.083 64.0938C212.927 64.1136 212.797 64.1307 212.691 64.1449C212.444 64.1761 212.218 64.2287 212.014 64.3026C211.812 64.3764 211.65 64.483 211.528 64.6222C211.409 64.7585 211.349 64.9403 211.349 65.1676C211.349 65.483 211.466 65.7216 211.699 65.8835C211.931 66.0426 212.228 66.1222 212.589 66.1222ZM223.709 58.2727V67H222.388V59.5938H222.337L220.249 60.9574V59.696L222.426 58.2727H223.709ZM229.108 67.1449C228.435 67.142 227.86 66.9645 227.382 66.6122C226.905 66.2599 226.54 65.7472 226.287 65.0739C226.034 64.4006 225.908 63.5895 225.908 62.6406C225.908 61.6946 226.034 60.8864 226.287 60.2159C226.543 59.5455 226.909 59.0341 227.387 58.6818C227.867 58.3295 228.441 58.1534 229.108 58.1534C229.776 58.1534 230.348 58.331 230.826 58.6861C231.303 59.0384 231.668 59.5497 231.921 60.2202C232.176 60.8878 232.304 61.6946 232.304 62.6406C232.304 63.5923 232.178 64.4048 231.925 65.0781C231.672 65.7486 231.307 66.2614 230.83 66.6165C230.353 66.9688 229.779 67.1449 229.108 67.1449ZM229.108 66.0071C229.699 66.0071 230.161 65.7188 230.493 65.142C230.828 64.5653 230.996 63.7315 230.996 62.6406C230.996 61.9162 230.919 61.304 230.766 60.804C230.615 60.3011 230.398 59.9205 230.114 59.6619C229.833 59.4006 229.498 59.2699 229.108 59.2699C228.52 59.2699 228.059 59.5597 227.723 60.1392C227.388 60.7187 227.219 61.5526 227.216 62.6406C227.216 63.3679 227.292 63.983 227.442 64.4858C227.596 64.9858 227.813 65.3651 228.094 65.6236C228.375 65.8793 228.713 66.0071 229.108 66.0071Z" fill="#98A2B3"/>
<path id="Aula 7" d="M66.9538 397H65.5561L68.6967 388.273H70.218L73.3587 397H71.9609L69.4936 389.858H69.4254L66.9538 397ZM67.1882 393.582H71.7223V394.69H67.1882V393.582ZM78.663 394.286V390.455H79.9414V397H78.6886V395.866H78.6204C78.4698 396.216 78.2283 396.507 77.896 396.74C77.5664 396.97 77.1559 397.085 76.6644 397.085C76.244 397.085 75.8718 396.993 75.5479 396.808C75.2269 396.621 74.9741 396.344 74.7894 395.977C74.6076 395.611 74.5167 395.158 74.5167 394.618V390.455H75.7908V394.464C75.7908 394.911 75.9144 395.266 76.1616 395.53C76.4087 395.794 76.7298 395.926 77.1246 395.926C77.3633 395.926 77.6005 395.866 77.8363 395.747C78.0749 395.628 78.2724 395.447 78.4286 395.206C78.5877 394.964 78.6658 394.658 78.663 394.286ZM82.9276 388.273V397H81.6534V388.273H82.9276ZM86.5465 397.145C86.1317 397.145 85.7567 397.068 85.4215 396.915C85.0863 396.759 84.8207 396.533 84.6246 396.237C84.4315 395.942 84.3349 395.58 84.3349 395.151C84.3349 394.781 84.4059 394.477 84.5479 394.239C84.69 394 84.8817 393.811 85.1232 393.672C85.3647 393.533 85.6346 393.428 85.9329 393.357C86.2312 393.286 86.5352 393.232 86.8448 393.195C87.2369 393.149 87.555 393.112 87.7994 393.084C88.0437 393.053 88.2212 393.003 88.332 392.935C88.4428 392.866 88.4982 392.756 88.4982 392.602V392.572C88.4982 392.2 88.3931 391.912 88.1829 391.707C87.9755 391.503 87.6658 391.401 87.2539 391.401C86.8249 391.401 86.4869 391.496 86.2397 391.686C85.9954 391.874 85.8263 392.082 85.7326 392.312L84.5352 392.04C84.6772 391.642 84.8846 391.321 85.1573 391.077C85.4329 390.83 85.7496 390.651 86.1076 390.54C86.4656 390.426 86.842 390.369 87.2369 390.369C87.4982 390.369 87.7752 390.401 88.0678 390.463C88.3633 390.523 88.6388 390.634 88.8945 390.795C89.1531 390.957 89.3647 391.189 89.5295 391.49C89.6942 391.788 89.7766 392.176 89.7766 392.653V397H88.5323V396.105H88.4812C88.3988 396.27 88.2752 396.432 88.1104 396.591C87.9457 396.75 87.734 396.882 87.4755 396.987C87.217 397.092 86.9073 397.145 86.5465 397.145ZM86.8235 396.122C87.1758 396.122 87.4769 396.053 87.7269 395.913C87.9798 395.774 88.1715 395.592 88.3022 395.368C88.4357 395.141 88.5025 394.898 88.5025 394.639V393.795C88.457 393.841 88.369 393.884 88.2383 393.923C88.1104 393.96 87.9641 393.993 87.7994 394.021C87.6346 394.047 87.4741 394.071 87.3178 394.094C87.1616 394.114 87.0309 394.131 86.9258 394.145C86.6786 394.176 86.4528 394.229 86.2482 394.303C86.0465 394.376 85.8846 394.483 85.7624 394.622C85.6431 394.759 85.5835 394.94 85.5835 395.168C85.5835 395.483 85.6999 395.722 85.9329 395.884C86.1658 396.043 86.4627 396.122 86.8235 396.122ZM94.9265 397L98.7362 389.466V389.402H94.3299V388.273H100.1V389.44L96.3029 397H94.9265Z" fill="#98A2B3"/>
<path id="Ingreso Diag. 78" d="M33.2756 470.273V479H31.9588V470.273H33.2756ZM36.3651 475.114V479H35.0909V472.455H36.3139V473.52H36.3949C36.5455 473.173 36.7813 472.895 37.1023 472.685C37.4261 472.474 37.8338 472.369 38.3253 472.369C38.7713 472.369 39.1619 472.463 39.4972 472.651C39.8324 472.835 40.0923 473.111 40.277 473.477C40.4616 473.844 40.554 474.297 40.554 474.837V479H39.2798V474.99C39.2798 474.516 39.1563 474.145 38.9091 473.878C38.6619 473.608 38.3224 473.473 37.8906 473.473C37.5952 473.473 37.3324 473.537 37.1023 473.665C36.875 473.793 36.6946 473.98 36.5611 474.227C36.4304 474.472 36.3651 474.767 36.3651 475.114ZM45.0071 481.591C44.4872 481.591 44.0398 481.523 43.6648 481.386C43.2926 481.25 42.9886 481.07 42.7528 480.845C42.517 480.621 42.3409 480.375 42.2244 480.108L43.3196 479.656C43.3963 479.781 43.4986 479.913 43.6264 480.053C43.7571 480.195 43.9332 480.315 44.1548 480.415C44.3793 480.514 44.6676 480.564 45.0199 480.564C45.5028 480.564 45.902 480.446 46.2173 480.21C46.5327 479.977 46.6903 479.605 46.6903 479.094V477.807H46.6094C46.5327 477.946 46.4219 478.101 46.277 478.271C46.1349 478.442 45.9389 478.589 45.6889 478.714C45.4389 478.839 45.1136 478.902 44.7131 478.902C44.196 478.902 43.7301 478.781 43.3153 478.54C42.9034 478.295 42.5767 477.936 42.3352 477.462C42.0966 476.984 41.9773 476.398 41.9773 475.702C41.9773 475.006 42.0952 474.409 42.331 473.912C42.5696 473.415 42.8963 473.034 43.3111 472.77C43.7259 472.503 44.196 472.369 44.7216 472.369C45.1278 472.369 45.456 472.438 45.706 472.574C45.956 472.707 46.1506 472.864 46.2898 473.043C46.4318 473.222 46.5412 473.379 46.6179 473.516H46.7116V472.455H47.9602V479.145C47.9602 479.707 47.8295 480.169 47.5682 480.53C47.3068 480.891 46.9531 481.158 46.5071 481.331C46.0639 481.504 45.5639 481.591 45.0071 481.591ZM44.9943 477.845C45.3608 477.845 45.6705 477.76 45.9233 477.589C46.179 477.416 46.3722 477.169 46.5028 476.848C46.6364 476.524 46.7031 476.136 46.7031 475.685C46.7031 475.244 46.6378 474.857 46.5071 474.521C46.3764 474.186 46.1847 473.925 45.9318 473.737C45.679 473.547 45.3665 473.452 44.9943 473.452C44.6108 473.452 44.2912 473.551 44.0355 473.75C43.7798 473.946 43.5866 474.213 43.456 474.551C43.3281 474.889 43.2642 475.267 43.2642 475.685C43.2642 476.114 43.3295 476.49 43.4602 476.814C43.5909 477.138 43.7841 477.391 44.0398 477.572C44.2983 477.754 44.6165 477.845 44.9943 477.845ZM49.669 479V472.455H50.9006V473.494H50.9688C51.0881 473.142 51.2983 472.865 51.5994 472.663C51.9034 472.459 52.2472 472.357 52.6307 472.357C52.7102 472.357 52.804 472.359 52.9119 472.365C53.0227 472.371 53.1094 472.378 53.1719 472.386V473.605C53.1207 473.591 53.0298 473.575 52.8991 473.558C52.7685 473.538 52.6378 473.528 52.5071 473.528C52.206 473.528 51.9375 473.592 51.7017 473.72C51.4688 473.845 51.2841 474.02 51.1477 474.244C51.0114 474.466 50.9432 474.719 50.9432 475.003V479H49.669ZM56.8612 479.132C56.2163 479.132 55.6609 478.994 55.195 478.719C54.7319 478.44 54.3739 478.05 54.1211 477.547C53.8711 477.041 53.7461 476.449 53.7461 475.77C53.7461 475.099 53.8711 474.509 54.1211 473.997C54.3739 473.486 54.7262 473.087 55.1779 472.8C55.6325 472.513 56.1637 472.369 56.7717 472.369C57.141 472.369 57.4989 472.43 57.8455 472.553C58.1921 472.675 58.5032 472.866 58.7788 473.128C59.0543 473.389 59.2717 473.729 59.4308 474.146C59.5898 474.561 59.6694 475.065 59.6694 475.659V476.111H54.4663V475.156H58.4208C58.4208 474.821 58.3526 474.524 58.2163 474.266C58.0799 474.004 57.8881 473.798 57.641 473.648C57.3967 473.497 57.1097 473.422 56.7802 473.422C56.4222 473.422 56.1097 473.51 55.8427 473.686C55.5785 473.859 55.3739 474.087 55.229 474.368C55.087 474.646 55.016 474.949 55.016 475.276V476.021C55.016 476.459 55.0927 476.831 55.2461 477.138C55.4023 477.445 55.6197 477.679 55.8981 477.841C56.1765 478 56.5018 478.08 56.8739 478.08C57.1154 478.08 57.3356 478.045 57.5344 477.977C57.7333 477.906 57.9052 477.801 58.0501 477.662C58.195 477.523 58.3058 477.351 58.3825 477.146L59.5884 477.364C59.4918 477.719 59.3185 478.03 59.0685 478.297C58.8214 478.561 58.5103 478.767 58.1353 478.915C57.7631 479.06 57.3384 479.132 56.8612 479.132ZM65.9879 474.053L64.8331 474.257C64.7848 474.109 64.7081 473.969 64.603 473.835C64.5007 473.702 64.3615 473.592 64.1854 473.507C64.0092 473.422 63.7891 473.379 63.5249 473.379C63.1641 473.379 62.8629 473.46 62.6214 473.622C62.38 473.781 62.2592 473.987 62.2592 474.24C62.2592 474.459 62.3402 474.635 62.5021 474.768C62.6641 474.902 62.9254 475.011 63.2862 475.097L64.326 475.335C64.9283 475.474 65.3771 475.689 65.6726 475.979C65.968 476.268 66.1158 476.645 66.1158 477.108C66.1158 477.5 66.0021 477.849 65.7749 478.156C65.5504 478.46 65.2365 478.699 64.8331 478.872C64.4325 479.045 63.968 479.132 63.4396 479.132C62.7067 479.132 62.1087 478.976 61.6456 478.663C61.1825 478.348 60.8984 477.901 60.7933 477.321L62.0249 477.134C62.1016 477.455 62.2592 477.697 62.4979 477.862C62.7365 478.024 63.0476 478.105 63.4311 478.105C63.8487 478.105 64.1825 478.018 64.4325 477.845C64.6825 477.669 64.8075 477.455 64.8075 477.202C64.8075 476.997 64.7308 476.825 64.5774 476.686C64.4268 476.547 64.1953 476.442 63.8828 476.371L62.7749 476.128C62.1641 475.989 61.7124 475.767 61.4197 475.463C61.13 475.159 60.9851 474.774 60.9851 474.308C60.9851 473.922 61.093 473.584 61.3089 473.294C61.5249 473.004 61.8232 472.778 62.2038 472.616C62.5845 472.452 63.0206 472.369 63.5121 472.369C64.2195 472.369 64.7763 472.523 65.1825 472.83C65.5888 473.134 65.8572 473.541 65.9879 474.053ZM70.2738 479.132C69.6602 479.132 69.1246 478.991 68.6673 478.71C68.2099 478.429 67.8548 478.036 67.6019 477.53C67.3491 477.024 67.2227 476.433 67.2227 475.757C67.2227 475.078 67.3491 474.484 67.6019 473.976C67.8548 473.467 68.2099 473.072 68.6673 472.791C69.1246 472.51 69.6602 472.369 70.2738 472.369C70.8874 472.369 71.4229 472.51 71.8803 472.791C72.3377 473.072 72.6928 473.467 72.9457 473.976C73.1985 474.484 73.3249 475.078 73.3249 475.757C73.3249 476.433 73.1985 477.024 72.9457 477.53C72.6928 478.036 72.3377 478.429 71.8803 478.71C71.4229 478.991 70.8874 479.132 70.2738 479.132ZM70.2781 478.062C70.6758 478.062 71.0053 477.957 71.2667 477.747C71.5281 477.537 71.7212 477.257 71.8462 476.908C71.9741 476.558 72.038 476.173 72.038 475.753C72.038 475.335 71.9741 474.952 71.8462 474.602C71.7212 474.25 71.5281 473.967 71.2667 473.754C71.0053 473.541 70.6758 473.435 70.2781 473.435C69.8775 473.435 69.5451 473.541 69.2809 473.754C69.0195 473.967 68.8249 474.25 68.6971 474.602C68.5721 474.952 68.5096 475.335 68.5096 475.753C68.5096 476.173 68.5721 476.558 68.6971 476.908C68.8249 477.257 69.0195 477.537 69.2809 477.747C69.5451 477.957 69.8775 478.062 70.2781 478.062ZM80.8505 479H78.0252V470.273H80.94C81.7951 470.273 82.5295 470.447 83.1431 470.797C83.7567 471.143 84.2269 471.642 84.5536 472.293C84.8832 472.94 85.0479 473.717 85.0479 474.624C85.0479 475.533 84.8817 476.314 84.5494 476.967C84.2198 477.621 83.7425 478.124 83.1175 478.476C82.4925 478.825 81.7369 479 80.8505 479ZM79.342 477.849H80.7781C81.4428 477.849 81.9954 477.724 82.4357 477.474C82.8761 477.222 83.2056 476.857 83.4244 476.379C83.6431 475.899 83.7525 475.314 83.7525 474.624C83.7525 473.939 83.6431 473.358 83.4244 472.881C83.2085 472.403 82.886 472.041 82.457 471.794C82.0281 471.547 81.4954 471.423 80.859 471.423H79.342V477.849ZM86.5831 479V472.455H87.8572V479H86.5831ZM87.2266 471.445C87.005 471.445 86.8146 471.371 86.6555 471.223C86.4993 471.072 86.4212 470.893 86.4212 470.686C86.4212 470.476 86.4993 470.297 86.6555 470.149C86.8146 469.999 87.005 469.923 87.2266 469.923C87.4482 469.923 87.6371 469.999 87.7933 470.149C87.9524 470.297 88.032 470.476 88.032 470.686C88.032 470.893 87.9524 471.072 87.7933 471.223C87.6371 471.371 87.4482 471.445 87.2266 471.445ZM91.4762 479.145C91.0614 479.145 90.6864 479.068 90.3512 478.915C90.016 478.759 89.7504 478.533 89.5543 478.237C89.3612 477.942 89.2646 477.58 89.2646 477.151C89.2646 476.781 89.3356 476.477 89.4776 476.239C89.6197 476 89.8114 475.811 90.0529 475.672C90.2944 475.533 90.5643 475.428 90.8626 475.357C91.1609 475.286 91.4648 475.232 91.7745 475.195C92.1665 475.149 92.4847 475.112 92.729 475.084C92.9734 475.053 93.1509 475.003 93.2617 474.935C93.3725 474.866 93.4279 474.756 93.4279 474.602V474.572C93.4279 474.2 93.3228 473.912 93.1126 473.707C92.9052 473.503 92.5955 473.401 92.1836 473.401C91.7546 473.401 91.4165 473.496 91.1694 473.686C90.9251 473.874 90.756 474.082 90.6623 474.312L89.4648 474.04C89.6069 473.642 89.8143 473.321 90.087 473.077C90.3626 472.83 90.6793 472.651 91.0373 472.54C91.3952 472.426 91.7717 472.369 92.1665 472.369C92.4279 472.369 92.7049 472.401 92.9975 472.463C93.293 472.523 93.5685 472.634 93.8242 472.795C94.0827 472.957 94.2944 473.189 94.4592 473.49C94.6239 473.788 94.7063 474.176 94.7063 474.653V479H93.462V478.105H93.4109C93.3285 478.27 93.2049 478.432 93.0401 478.591C92.8754 478.75 92.6637 478.882 92.4052 478.987C92.1467 479.092 91.837 479.145 91.4762 479.145ZM91.7532 478.122C92.1055 478.122 92.4066 478.053 92.6566 477.913C92.9094 477.774 93.1012 477.592 93.2319 477.368C93.3654 477.141 93.4322 476.898 93.4322 476.639V475.795C93.3867 475.841 93.2987 475.884 93.168 475.923C93.0401 475.96 92.8938 475.993 92.729 476.021C92.5643 476.047 92.4038 476.071 92.2475 476.094C92.0913 476.114 91.9606 476.131 91.8555 476.145C91.6083 476.176 91.3825 476.229 91.1779 476.303C90.9762 476.376 90.8143 476.483 90.6921 476.622C90.5728 476.759 90.5131 476.94 90.5131 477.168C90.5131 477.483 90.6296 477.722 90.8626 477.884C91.0955 478.043 91.3924 478.122 91.7532 478.122ZM99.1477 481.591C98.6278 481.591 98.1804 481.523 97.8054 481.386C97.4332 481.25 97.1293 481.07 96.8935 480.845C96.6577 480.621 96.4815 480.375 96.3651 480.108L97.4602 479.656C97.5369 479.781 97.6392 479.913 97.767 480.053C97.8977 480.195 98.0739 480.315 98.2955 480.415C98.5199 480.514 98.8082 480.564 99.1605 480.564C99.6435 480.564 100.043 480.446 100.358 480.21C100.673 479.977 100.831 479.605 100.831 479.094V477.807H100.75C100.673 477.946 100.563 478.101 100.418 478.271C100.276 478.442 100.08 478.589 99.8295 478.714C99.5795 478.839 99.2543 478.902 98.8537 478.902C98.3366 478.902 97.8707 478.781 97.456 478.54C97.044 478.295 96.7173 477.936 96.4759 477.462C96.2372 476.984 96.1179 476.398 96.1179 475.702C96.1179 475.006 96.2358 474.409 96.4716 473.912C96.7102 473.415 97.0369 473.034 97.4517 472.77C97.8665 472.503 98.3366 472.369 98.8622 472.369C99.2685 472.369 99.5966 472.438 99.8466 472.574C100.097 472.707 100.291 472.864 100.43 473.043C100.572 473.222 100.682 473.379 100.759 473.516H100.852V472.455H102.101V479.145C102.101 479.707 101.97 480.169 101.709 480.53C101.447 480.891 101.094 481.158 100.648 481.331C100.205 481.504 99.7045 481.591 99.1477 481.591ZM99.1349 477.845C99.5014 477.845 99.8111 477.76 100.064 477.589C100.32 477.416 100.513 477.169 100.643 476.848C100.777 476.524 100.844 476.136 100.844 475.685C100.844 475.244 100.778 474.857 100.648 474.521C100.517 474.186 100.325 473.925 100.072 473.737C99.8196 473.547 99.5071 473.452 99.1349 473.452C98.7514 473.452 98.4318 473.551 98.1761 473.75C97.9205 473.946 97.7273 474.213 97.5966 474.551C97.4688 474.889 97.4048 475.267 97.4048 475.685C97.4048 476.114 97.4702 476.49 97.6009 476.814C97.7315 477.138 97.9247 477.391 98.1804 477.572C98.4389 477.754 98.7571 477.845 99.1349 477.845ZM104.649 479.081C104.416 479.081 104.216 478.999 104.048 478.834C103.881 478.666 103.797 478.464 103.797 478.229C103.797 477.996 103.881 477.797 104.048 477.632C104.216 477.464 104.416 477.381 104.649 477.381C104.882 477.381 105.082 477.464 105.25 477.632C105.418 477.797 105.501 477.996 105.501 478.229C105.501 478.385 105.462 478.528 105.382 478.659C105.305 478.787 105.203 478.889 105.075 478.966C104.947 479.043 104.805 479.081 104.649 479.081ZM110.52 479L114.33 471.466V471.402H109.924V470.273H115.694V471.44L111.897 479H110.52ZM119.949 479.119C119.338 479.119 118.798 479.014 118.329 478.804C117.863 478.594 117.498 478.304 117.234 477.935C116.97 477.565 116.839 477.145 116.842 476.673C116.839 476.304 116.914 475.964 117.068 475.655C117.224 475.342 117.436 475.082 117.703 474.875C117.97 474.665 118.268 474.531 118.598 474.474V474.423C118.163 474.318 117.815 474.085 117.554 473.724C117.292 473.364 117.163 472.949 117.166 472.48C117.163 472.034 117.281 471.636 117.52 471.287C117.761 470.935 118.092 470.658 118.512 470.456C118.933 470.254 119.412 470.153 119.949 470.153C120.48 470.153 120.954 470.256 121.372 470.46C121.792 470.662 122.123 470.939 122.365 471.291C122.606 471.641 122.728 472.037 122.731 472.48C122.728 472.949 122.595 473.364 122.331 473.724C122.066 474.085 121.723 474.318 121.299 474.423V474.474C121.626 474.531 121.92 474.665 122.181 474.875C122.446 475.082 122.656 475.342 122.812 475.655C122.971 475.964 123.052 476.304 123.055 476.673C123.052 477.145 122.919 477.565 122.654 477.935C122.39 478.304 122.024 478.594 121.555 478.804C121.089 479.014 120.554 479.119 119.949 479.119ZM119.949 478.041C120.309 478.041 120.622 477.982 120.886 477.862C121.15 477.74 121.355 477.571 121.5 477.355C121.645 477.136 121.718 476.881 121.721 476.588C121.718 476.284 121.639 476.016 121.483 475.783C121.329 475.55 121.12 475.366 120.856 475.233C120.592 475.099 120.289 475.033 119.949 475.033C119.605 475.033 119.299 475.099 119.032 475.233C118.765 475.366 118.555 475.55 118.402 475.783C118.248 476.016 118.173 476.284 118.176 476.588C118.173 476.881 118.243 477.136 118.385 477.355C118.529 477.571 118.735 477.74 119.002 477.862C119.27 477.982 119.585 478.041 119.949 478.041ZM119.949 473.98C120.238 473.98 120.495 473.922 120.72 473.805C120.944 473.689 121.12 473.527 121.248 473.32C121.379 473.112 121.446 472.869 121.449 472.591C121.446 472.318 121.38 472.08 121.252 471.875C121.127 471.67 120.953 471.513 120.728 471.402C120.504 471.288 120.244 471.232 119.949 471.232C119.647 471.232 119.383 471.288 119.156 471.402C118.931 471.513 118.757 471.67 118.632 471.875C118.507 472.08 118.446 472.318 118.449 472.591C118.446 472.869 118.508 473.112 118.636 473.32C118.764 473.527 118.94 473.689 119.164 473.805C119.392 473.922 119.653 473.98 119.949 473.98Z" fill="#98A2B3"/>
<path id="SAE" d="M39.0762 160.565C39.0307 160.162 38.8432 159.849 38.5137 159.628C38.1841 159.403 37.7694 159.291 37.2694 159.291C36.9114 159.291 36.6017 159.348 36.3404 159.462C36.079 159.572 35.8759 159.726 35.731 159.922C35.589 160.115 35.5179 160.335 35.5179 160.582C35.5179 160.79 35.5662 160.969 35.6628 161.119C35.7623 161.27 35.8915 161.396 36.0506 161.499C36.2125 161.598 36.3858 161.682 36.5705 161.75C36.7551 161.815 36.9327 161.869 37.1032 161.912L37.9554 162.134C38.2338 162.202 38.5194 162.294 38.812 162.411C39.1046 162.527 39.3759 162.68 39.6259 162.871C39.8759 163.061 40.0776 163.297 40.231 163.578C40.3873 163.859 40.4654 164.196 40.4654 164.588C40.4654 165.082 40.3375 165.521 40.0819 165.905C39.829 166.288 39.4611 166.591 38.9782 166.812C38.498 167.034 37.9171 167.145 37.2353 167.145C36.5819 167.145 36.0165 167.041 35.5392 166.834C35.062 166.626 34.6884 166.332 34.4185 165.952C34.1486 165.568 33.9995 165.114 33.9711 164.588H35.2921C35.3176 164.903 35.4199 165.166 35.5989 165.376C35.7807 165.584 36.0123 165.739 36.2935 165.841C36.5776 165.94 36.8887 165.99 37.2267 165.99C37.5989 165.99 37.9299 165.932 38.2196 165.815C38.5123 165.696 38.7424 165.531 38.91 165.321C39.0776 165.108 39.1614 164.859 39.1614 164.575C39.1614 164.317 39.0875 164.105 38.9398 163.94C38.7949 163.776 38.5975 163.639 38.3475 163.531C38.1003 163.423 37.8205 163.328 37.508 163.246L36.4767 162.964C35.7779 162.774 35.2239 162.494 34.8148 162.125C34.4086 161.756 34.2054 161.267 34.2054 160.659C34.2054 160.156 34.3418 159.717 34.6145 159.342C34.8873 158.967 35.2566 158.676 35.7225 158.469C36.1884 158.259 36.714 158.153 37.2992 158.153C37.8901 158.153 38.4114 158.257 38.8631 158.464C39.3176 158.672 39.6756 158.957 39.937 159.321C40.1983 159.682 40.3347 160.097 40.3461 160.565H39.0762ZM42.7058 167H41.3081L44.4487 158.273H45.97L49.1106 167H47.7129L45.2456 159.858H45.1774L42.7058 167ZM42.9402 163.582H47.4743V164.69H42.9402V163.582ZM50.3709 167V158.273H55.8425V159.406H51.6877V162.065H55.557V163.195H51.6877V165.866H55.8936V167H50.3709Z" fill="#98A2B3"/>
<path id="Ba&#195;&#177;o" d="M22.4158 223V214.273H25.6119C26.2312 214.273 26.744 214.375 27.1502 214.58C27.5565 214.781 27.8604 215.055 28.0621 215.402C28.2638 215.746 28.3647 216.134 28.3647 216.565C28.3647 216.929 28.2979 217.236 28.1644 217.486C28.0309 217.733 27.8519 217.932 27.6275 218.082C27.4059 218.23 27.1616 218.338 26.8945 218.406V218.491C27.1843 218.506 27.467 218.599 27.7425 218.773C28.021 218.943 28.2511 219.186 28.4329 219.501C28.6147 219.817 28.7056 220.2 28.7056 220.652C28.7056 221.098 28.6005 221.499 28.3903 221.854C28.1829 222.206 27.8619 222.486 27.4272 222.693C26.9925 222.898 26.4371 223 25.761 223H22.4158ZM23.7326 221.871H25.6332C26.2638 221.871 26.7156 221.749 26.9883 221.504C27.261 221.26 27.3974 220.955 27.3974 220.588C27.3974 220.312 27.3278 220.06 27.1886 219.83C27.0494 219.599 26.8505 219.416 26.592 219.28C26.3363 219.143 26.0323 219.075 25.68 219.075H23.7326V221.871ZM23.7326 218.048H25.4968C25.7923 218.048 26.0579 217.991 26.2937 217.878C26.5323 217.764 26.7212 217.605 26.8604 217.401C27.0025 217.193 27.0735 216.949 27.0735 216.668C27.0735 216.307 26.9471 216.004 26.6942 215.76C26.4414 215.516 26.0536 215.393 25.5309 215.393H23.7326V218.048ZM32.07 223.145C31.6552 223.145 31.2802 223.068 30.945 222.915C30.6097 222.759 30.3441 222.533 30.1481 222.237C29.9549 221.942 29.8583 221.58 29.8583 221.151C29.8583 220.781 29.9293 220.477 30.0714 220.239C30.2134 220 30.4052 219.811 30.6467 219.672C30.8881 219.533 31.158 219.428 31.4563 219.357C31.7546 219.286 32.0586 219.232 32.3683 219.195C32.7603 219.149 33.0785 219.112 33.3228 219.084C33.5671 219.053 33.7447 219.003 33.8555 218.935C33.9663 218.866 34.0217 218.756 34.0217 218.602V218.572C34.0217 218.2 33.9165 217.912 33.7063 217.707C33.4989 217.503 33.1893 217.401 32.7773 217.401C32.3484 217.401 32.0103 217.496 31.7631 217.686C31.5188 217.874 31.3498 218.082 31.256 218.312L30.0586 218.04C30.2006 217.642 30.408 217.321 30.6808 217.077C30.9563 216.83 31.2731 216.651 31.631 216.54C31.989 216.426 32.3654 216.369 32.7603 216.369C33.0217 216.369 33.2987 216.401 33.5913 216.463C33.8867 216.523 34.1623 216.634 34.418 216.795C34.6765 216.957 34.8881 217.189 35.0529 217.49C35.2177 217.788 35.3001 218.176 35.3001 218.653V223H34.0558V222.105H34.0046C33.9222 222.27 33.7987 222.432 33.6339 222.591C33.4691 222.75 33.2575 222.882 32.9989 222.987C32.7404 223.092 32.4308 223.145 32.07 223.145ZM32.3469 222.122C32.6992 222.122 33.0004 222.053 33.2504 221.913C33.5032 221.774 33.695 221.592 33.8256 221.368C33.9592 221.141 34.0259 220.898 34.0259 220.639V219.795C33.9805 219.841 33.8924 219.884 33.7617 219.923C33.6339 219.96 33.4876 219.993 33.3228 220.021C33.158 220.047 32.9975 220.071 32.8413 220.094C32.685 220.114 32.5543 220.131 32.4492 220.145C32.2021 220.176 31.9762 220.229 31.7717 220.303C31.57 220.376 31.408 220.483 31.2859 220.622C31.1665 220.759 31.1069 220.94 31.1069 221.168C31.1069 221.483 31.2234 221.722 31.4563 221.884C31.6893 222.043 31.9862 222.122 32.3469 222.122ZM38.2713 219.114V223H36.9972V216.455H38.2202V217.52H38.3011C38.4517 217.173 38.6875 216.895 39.0085 216.685C39.3324 216.474 39.7401 216.369 40.2315 216.369C40.6776 216.369 41.0682 216.463 41.4034 216.651C41.7386 216.835 41.9986 217.111 42.1832 217.477C42.3679 217.844 42.4602 218.297 42.4602 218.837V223H41.1861V218.99C41.1861 218.516 41.0625 218.145 40.8153 217.878C40.5682 217.608 40.2287 217.473 39.7969 217.473C39.5014 217.473 39.2386 217.537 39.0085 217.665C38.7813 217.793 38.6009 217.98 38.4673 218.227C38.3366 218.472 38.2713 218.767 38.2713 219.114ZM38.446 215.662L37.5895 215.636C37.5895 215.165 37.7159 214.788 37.9688 214.507C38.2244 214.226 38.5398 214.085 38.9148 214.085C39.0881 214.085 39.2401 214.115 39.3707 214.175C39.5014 214.232 39.6236 214.298 39.7372 214.375C39.8537 214.449 39.9688 214.516 40.0824 214.575C40.1989 214.632 40.3281 214.661 40.4702 214.661C40.6349 214.661 40.7685 214.598 40.8707 214.473C40.9759 214.348 41.0284 214.193 41.0284 214.009L41.8679 214.064C41.8679 214.538 41.7401 214.912 41.4844 215.185C41.2287 215.455 40.9148 215.591 40.5426 215.594C40.3409 215.594 40.1733 215.565 40.0398 215.509C39.9091 215.449 39.7926 215.382 39.6903 215.308C39.5881 215.232 39.483 215.163 39.375 215.104C39.267 215.044 39.1378 215.014 38.9872 215.014C38.8281 215.014 38.6974 215.077 38.5952 215.202C38.4957 215.324 38.446 215.477 38.446 215.662ZM46.9261 223.132C46.3125 223.132 45.777 222.991 45.3196 222.71C44.8622 222.429 44.5071 222.036 44.2543 221.53C44.0014 221.024 43.875 220.433 43.875 219.757C43.875 219.078 44.0014 218.484 44.2543 217.976C44.5071 217.467 44.8622 217.072 45.3196 216.791C45.777 216.51 46.3125 216.369 46.9261 216.369C47.5398 216.369 48.0753 216.51 48.5327 216.791C48.9901 217.072 49.3452 217.467 49.598 217.976C49.8509 218.484 49.9773 219.078 49.9773 219.757C49.9773 220.433 49.8509 221.024 49.598 221.53C49.3452 222.036 48.9901 222.429 48.5327 222.71C48.0753 222.991 47.5398 223.132 46.9261 223.132ZM46.9304 222.062C47.3281 222.062 47.6577 221.957 47.919 221.747C48.1804 221.537 48.3736 221.257 48.4986 220.908C48.6264 220.558 48.6903 220.173 48.6903 219.753C48.6903 219.335 48.6264 218.952 48.4986 218.602C48.3736 218.25 48.1804 217.967 47.919 217.754C47.6577 217.541 47.3281 217.435 46.9304 217.435C46.5298 217.435 46.1974 217.541 45.9332 217.754C45.6719 217.967 45.4773 218.25 45.3494 218.602C45.2244 218.952 45.1619 219.335 45.1619 219.753C45.1619 220.173 45.2244 220.558 45.3494 220.908C45.4773 221.257 45.6719 221.537 45.9332 221.747C46.1974 221.957 46.5298 222.062 46.9304 222.062Z" fill="#98A2B3"/>
<path id="Ba&#195;&#177;o_2" d="M89.4158 223V214.273H92.6119C93.2312 214.273 93.744 214.375 94.1502 214.58C94.5565 214.781 94.8604 215.055 95.0621 215.402C95.2638 215.746 95.3647 216.134 95.3647 216.565C95.3647 216.929 95.2979 217.236 95.1644 217.486C95.0309 217.733 94.8519 217.932 94.6275 218.082C94.4059 218.23 94.1616 218.338 93.8945 218.406V218.491C94.1843 218.506 94.467 218.599 94.7425 218.773C95.021 218.943 95.2511 219.186 95.4329 219.501C95.6147 219.817 95.7056 220.2 95.7056 220.652C95.7056 221.098 95.6005 221.499 95.3903 221.854C95.1829 222.206 94.8619 222.486 94.4272 222.693C93.9925 222.898 93.4371 223 92.761 223H89.4158ZM90.7326 221.871H92.6332C93.2638 221.871 93.7156 221.749 93.9883 221.504C94.261 221.26 94.3974 220.955 94.3974 220.588C94.3974 220.312 94.3278 220.06 94.1886 219.83C94.0494 219.599 93.8505 219.416 93.592 219.28C93.3363 219.143 93.0323 219.075 92.68 219.075H90.7326V221.871ZM90.7326 218.048H92.4968C92.7923 218.048 93.0579 217.991 93.2937 217.878C93.5323 217.764 93.7212 217.605 93.8604 217.401C94.0025 217.193 94.0735 216.949 94.0735 216.668C94.0735 216.307 93.9471 216.004 93.6942 215.76C93.4414 215.516 93.0536 215.393 92.5309 215.393H90.7326V218.048ZM99.07 223.145C98.6552 223.145 98.2802 223.068 97.945 222.915C97.6097 222.759 97.3441 222.533 97.1481 222.237C96.9549 221.942 96.8583 221.58 96.8583 221.151C96.8583 220.781 96.9293 220.477 97.0714 220.239C97.2134 220 97.4052 219.811 97.6467 219.672C97.8881 219.533 98.158 219.428 98.4563 219.357C98.7546 219.286 99.0586 219.232 99.3683 219.195C99.7603 219.149 100.078 219.112 100.323 219.084C100.567 219.053 100.745 219.003 100.855 218.935C100.966 218.866 101.022 218.756 101.022 218.602V218.572C101.022 218.2 100.917 217.912 100.706 217.707C100.499 217.503 100.189 217.401 99.7773 217.401C99.3484 217.401 99.0103 217.496 98.7631 217.686C98.5188 217.874 98.3498 218.082 98.256 218.312L97.0586 218.04C97.2006 217.642 97.408 217.321 97.6808 217.077C97.9563 216.83 98.2731 216.651 98.631 216.54C98.989 216.426 99.3654 216.369 99.7603 216.369C100.022 216.369 100.299 216.401 100.591 216.463C100.887 216.523 101.162 216.634 101.418 216.795C101.676 216.957 101.888 217.189 102.053 217.49C102.218 217.788 102.3 218.176 102.3 218.653V223H101.056V222.105H101.005C100.922 222.27 100.799 222.432 100.634 222.591C100.469 222.75 100.257 222.882 99.9989 222.987C99.7404 223.092 99.4308 223.145 99.07 223.145ZM99.3469 222.122C99.6992 222.122 100 222.053 100.25 221.913C100.503 221.774 100.695 221.592 100.826 221.368C100.959 221.141 101.026 220.898 101.026 220.639V219.795C100.98 219.841 100.892 219.884 100.762 219.923C100.634 219.96 100.488 219.993 100.323 220.021C100.158 220.047 99.9975 220.071 99.8413 220.094C99.685 220.114 99.5543 220.131 99.4492 220.145C99.2021 220.176 98.9762 220.229 98.7717 220.303C98.57 220.376 98.408 220.483 98.2859 220.622C98.1665 220.759 98.1069 220.94 98.1069 221.168C98.1069 221.483 98.2234 221.722 98.4563 221.884C98.6893 222.043 98.9862 222.122 99.3469 222.122ZM105.271 219.114V223H103.997V216.455H105.22V217.52H105.301C105.452 217.173 105.688 216.895 106.009 216.685C106.332 216.474 106.74 216.369 107.232 216.369C107.678 216.369 108.068 216.463 108.403 216.651C108.739 216.835 108.999 217.111 109.183 217.477C109.368 217.844 109.46 218.297 109.46 218.837V223H108.186V218.99C108.186 218.516 108.063 218.145 107.815 217.878C107.568 217.608 107.229 217.473 106.797 217.473C106.501 217.473 106.239 217.537 106.009 217.665C105.781 217.793 105.601 217.98 105.467 218.227C105.337 218.472 105.271 218.767 105.271 219.114ZM105.446 215.662L104.589 215.636C104.589 215.165 104.716 214.788 104.969 214.507C105.224 214.226 105.54 214.085 105.915 214.085C106.088 214.085 106.24 214.115 106.371 214.175C106.501 214.232 106.624 214.298 106.737 214.375C106.854 214.449 106.969 214.516 107.082 214.575C107.199 214.632 107.328 214.661 107.47 214.661C107.635 214.661 107.768 214.598 107.871 214.473C107.976 214.348 108.028 214.193 108.028 214.009L108.868 214.064C108.868 214.538 108.74 214.912 108.484 215.185C108.229 215.455 107.915 215.591 107.543 215.594C107.341 215.594 107.173 215.565 107.04 215.509C106.909 215.449 106.793 215.382 106.69 215.308C106.588 215.232 106.483 215.163 106.375 215.104C106.267 215.044 106.138 215.014 105.987 215.014C105.828 215.014 105.697 215.077 105.595 215.202C105.496 215.324 105.446 215.477 105.446 215.662ZM113.926 223.132C113.313 223.132 112.777 222.991 112.32 222.71C111.862 222.429 111.507 222.036 111.254 221.53C111.001 221.024 110.875 220.433 110.875 219.757C110.875 219.078 111.001 218.484 111.254 217.976C111.507 217.467 111.862 217.072 112.32 216.791C112.777 216.51 113.313 216.369 113.926 216.369C114.54 216.369 115.075 216.51 115.533 216.791C115.99 217.072 116.345 217.467 116.598 217.976C116.851 218.484 116.977 219.078 116.977 219.757C116.977 220.433 116.851 221.024 116.598 221.53C116.345 222.036 115.99 222.429 115.533 222.71C115.075 222.991 114.54 223.132 113.926 223.132ZM113.93 222.062C114.328 222.062 114.658 221.957 114.919 221.747C115.18 221.537 115.374 221.257 115.499 220.908C115.626 220.558 115.69 220.173 115.69 219.753C115.69 219.335 115.626 218.952 115.499 218.602C115.374 218.25 115.18 217.967 114.919 217.754C114.658 217.541 114.328 217.435 113.93 217.435C113.53 217.435 113.197 217.541 112.933 217.754C112.672 217.967 112.477 218.25 112.349 218.602C112.224 218.952 112.162 219.335 112.162 219.753C112.162 220.173 112.224 220.558 112.349 220.908C112.477 221.257 112.672 221.537 112.933 221.747C113.197 221.957 113.53 222.062 113.93 222.062Z" fill="#98A2B3"/>
<g id="Group 5_2">
<rect id="Rectangle 29_2" x="93" y="165" width="43" height="6" fill="#E4E7EC"/>
<g id="Group 4">
<path id="Rectangle 21_18" d="M136 150.952L134.235 150L128.941 150.952L127.176 169.048L128.941 170H136V150.952Z" fill="#E4E7EC"/>
<path id="Rectangle 21_19" d="M134.235 150H127.177V169H134.235V150Z" fill="white"/>
</g>
<g id="Group 4_2">
<path id="Rectangle 21_20" d="M128.941 149.952L127.176 149L121.882 149.952L120.118 168.048L121.882 169H128.941V149.952Z" fill="#E4E7EC"/>
<path id="Rectangle 21_21" d="M127.177 149H120.118V168H127.177V149Z" fill="white"/>
</g>
<g id="Group 4_3">
<path id="Rectangle 21_22" d="M121.882 148.952L120.118 148L114.824 148.952L113.059 167.048L114.824 168H121.882V148.952Z" fill="#E4E7EC"/>
<path id="Rectangle 21_23" d="M120.118 148H113.059V167H120.118V148Z" fill="white"/>
</g>
<g id="Group 4_4">
<path id="Rectangle 21_24" d="M114.823 147.952L113.059 147L107.765 147.952L106 166.048L107.765 167H114.823V147.952Z" fill="#E4E7EC"/>
<path id="Rectangle 21_25" d="M113.059 147H106V166H113.059V147Z" fill="white"/>
</g>
<g id="Group 4_5">
<path id="Rectangle 21_26" d="M107.823 146.952L106.059 146L100.765 146.952L99 165.048L100.765 166H107.823V146.952Z" fill="#E4E7EC"/>
<path id="Rectangle 21_27" d="M106.059 146H99V165H106.059V146Z" fill="white"/>
</g>
<g id="Group 4_6">
<path id="Rectangle 21_28" d="M100.823 145.952L99.0588 145L93.7647 145.952L92 164.048L93.7647 165H100.823V145.952Z" fill="#E4E7EC"/>
<path id="Rectangle 21_29" d="M99.0588 145H92V164H99.0588V145Z" fill="white"/>
</g>
<line id="Line 2_2" x1="92" y1="144.5" x2="99" y2="144.5" stroke="#F2F4F7"/>
</g>
<rect id="Rectangle 28" x="177" y="456" width="16" height="5" fill="#F2F4F7"/>
<rect id="Rectangle 28_2" x="286" y="172" width="27" height="6" transform="rotate(90 286 172)" fill="#F2F4F7"/>
<path id="Arrow 1" d="M23.7071 475.707C24.0976 475.317 24.0976 474.683 23.7071 474.293L17.3431 467.929C16.9526 467.538 16.3195 467.538 15.9289 467.929C15.5384 468.319 15.5384 468.953 15.9289 469.343L21.5858 475L15.9289 480.657C15.5384 481.047 15.5384 481.681 15.9289 482.071C16.3195 482.462 16.9526 482.462 17.3431 482.071L23.7071 475.707ZM8 476H23V474H8V476Z" fill="#D0D5DD"/>
<rect id="Rectangle 46" x="286" y="8" width="36" height="153" fill="url(#paint0_linear_468_225)"/>
</g>
<g id="HOME">
<g id="ege">
<circle id="Ellipse 3" cx="174" cy="346" r="15" fill="#F2F4F7" stroke="url(#paint1_linear_468_225)" stroke-width="2"/>
<g id="Frame">
<path id="Vector" d="M172 352H170.667C169.194 352 168 350.806 168 349.333V345.138C168 344.206 168.487 343.341 169.285 342.858L172.618 340.838C173.467 340.323 174.533 340.323 175.382 340.838L178.715 342.858C179.513 343.341 180 344.206 180 345.138V349.333C180 350.806 178.806 352 177.333 352H176M172 352V349.333C172 348.229 172.895 347.333 174 347.333C175.105 347.333 176 348.229 176 349.333V352M172 352H176" stroke="#007BFF" stroke-width="1.5" stroke-linecap="round" stroke-linejoin="round"/>
</g>
<circle id="Ellipse 9" cx="174" cy="366" r="2" fill="#007BFF"/>
</g>
</g>
<g id="PDE1">
<g id="efe">
<circle id="Ellipse 3_2" cx="28" cy="384" r="15" fill="#F2F4F7" stroke="url(#paint2_linear_468_225)" stroke-width="2"/>
<g id="Frame_2">
<path id="Vector_2" d="M25.267 381.386C25.267 378.205 30.267 378.205 30.267 381.386C30.267 383.659 27.9942 383.204 27.9942 385.932" stroke="#007BFF" stroke-width="1.5" stroke-linecap="round" stroke-linejoin="round"/>
<path id="Vector_3" d="M28 388.673L28.0067 388.666" stroke="#007BFF" stroke-width="1.5" stroke-linecap="round" stroke-linejoin="round"/>
</g>
<circle id="Ellipse 9_2" cx="28" cy="404" r="2" fill="#007BFF"/>
</g>
</g>
<g id="PDE1-unlock">
<g id="asde">
<circle id="Ellipse 3_3" cx="28" cy="384" r="15" fill="#F2F4F7" stroke="url(#paint3_linear_468_225)" stroke-width="2"/>
<g id="Frame_3">
<path id="Vector_4" d="M23.3334 384.667L26 387.333L32.6667 380.667" stroke="#007BFF" stroke-width="1.5" stroke-linecap="round" stroke-linejoin="round"/>
</g>
<circle id="Ellipse 9_3" cx="28" cy="404" r="2" fill="#007BFF"/>
</g>
</g>
<g id="PDE2">
<g id="asd">
<circle id="Ellipse 3_4" cx="246" cy="183" r="15" fill="#F2F4F7" stroke="url(#paint4_linear_468_225)" stroke-width="2"/>
<g id="Frame_4">
<path id="Vector_5" d="M243.267 180.386C243.267 177.205 248.267 177.205 248.267 180.386C248.267 182.659 245.994 182.204 245.994 184.932" stroke="#007BFF" stroke-width="1.5" stroke-linecap="round" stroke-linejoin="round"/>
<path id="Vector_6" d="M246 187.673L246.007 187.666" stroke="#007BFF" stroke-width="1.5" stroke-linecap="round" stroke-linejoin="round"/>
</g>
<circle id="Ellipse 9_4" cx="246" cy="203" r="2" fill="#007BFF"/>
</g>
</g>
<g id="PDE2-unlock">
<g id="efeege">
<circle id="Ellipse 3_5" cx="246" cy="183" r="15" fill="#F2F4F7" stroke="url(#paint5_linear_468_225)" stroke-width="2"/>
<g id="Frame_5">
<path id="Vector_7" d="M241.333 183.667L244 186.333L250.667 179.667" stroke="#007BFF" stroke-width="1.5" stroke-linecap="round" stroke-linejoin="round"/>
</g>
<circle id="Ellipse 9_5" cx="246" cy="203" r="2" fill="#007BFF"/>
</g>
</g>
<g id="PDE3">
<g id="asd_2">
<circle id="Ellipse 3_6" cx="192" cy="93" r="15" fill="#F2F4F7" stroke="url(#paint6_linear_468_225)" stroke-width="2"/>
<g id="Frame_6">
<path id="Vector_8" d="M189.267 90.3864C189.267 87.2045 194.267 87.2045 194.267 90.3864C194.267 92.6591 191.994 92.2045 191.994 94.9317" stroke="#007BFF" stroke-width="1.5" stroke-linecap="round" stroke-linejoin="round"/>
<path id="Vector_9" d="M192 97.6733L192.007 97.6659" stroke="#007BFF" stroke-width="1.5" stroke-linecap="round" stroke-linejoin="round"/>
</g>
<circle id="Ellipse 9_6" cx="192" cy="113" r="2" fill="#007BFF"/>
</g>
</g>
<g id="PDE3-unlock">
<g id="DASD">
<circle id="Ellipse 3_7" cx="192" cy="93" r="15" fill="#F2F4F7" stroke="url(#paint7_linear_468_225)" stroke-width="2"/>
<g id="Frame_7">
<path id="Vector_10" d="M187.333 93.6667L190 96.3333L196.667 89.6667" stroke="#007BFF" stroke-width="1.5" stroke-linecap="round" stroke-linejoin="round"/>
</g>
<circle id="Ellipse 9_7" cx="192" cy="113" r="2" fill="#007BFF"/>
</g>
</g>
</g>
<defs>
<linearGradient id="paint0_linear_468_225" x1="313.5" y1="84.5" x2="286" y2="84.5" gradientUnits="userSpaceOnUse">
<stop stop-color="#F2F4F7"/>
<stop offset="1" stop-color="#F2F4F7" stop-opacity="0"/>
</linearGradient>
<linearGradient id="paint1_linear_468_225" x1="185" y1="351" x2="160" y2="337" gradientUnits="userSpaceOnUse">
<stop offset="0.458153" stop-color="#007BFF"/>
<stop offset="1" stop-color="#85B6FF"/>
</linearGradient>
<linearGradient id="paint2_linear_468_225" x1="39" y1="389" x2="14" y2="375" gradientUnits="userSpaceOnUse">
<stop offset="0.458153" stop-color="#007BFF"/>
<stop offset="1" stop-color="#85B6FF"/>
</linearGradient>
<linearGradient id="paint3_linear_468_225" x1="39" y1="389" x2="14" y2="375" gradientUnits="userSpaceOnUse">
<stop offset="0.458153" stop-color="#007BFF"/>
<stop offset="1" stop-color="#85B6FF"/>
</linearGradient>
<linearGradient id="paint4_linear_468_225" x1="257" y1="188" x2="232" y2="174" gradientUnits="userSpaceOnUse">
<stop offset="0.458153" stop-color="#007BFF"/>
<stop offset="1" stop-color="#85B6FF"/>
</linearGradient>
<linearGradient id="paint5_linear_468_225" x1="257" y1="188" x2="232" y2="174" gradientUnits="userSpaceOnUse">
<stop offset="0.458153" stop-color="#007BFF"/>
<stop offset="1" stop-color="#85B6FF"/>
</linearGradient>
<linearGradient id="paint6_linear_468_225" x1="203" y1="98" x2="178" y2="84" gradientUnits="userSpaceOnUse">
<stop offset="0.458153" stop-color="#007BFF"/>
<stop offset="1" stop-color="#85B6FF"/>
</linearGradient>
<linearGradient id="paint7_linear_468_225" x1="203" y1="98" x2="178" y2="84" gradientUnits="userSpaceOnUse">
<stop offset="0.458153" stop-color="#007BFF"/>
<stop offset="1" stop-color="#85B6FF"/>
</linearGradient>
<clipPath id="clip0_468_225">
<rect width="322" height="493" fill="white"/>
</clipPath>
</defs>
</svg>
